# xmcd CD database file
#
# Track frame offsets:
#	192
#	10235
#	23487
#	34875
#	45812
#	57387
#	70280
#	82760
#	96087
#	105835
#	116930
#	126890
#	137977
#	151142
#	164162
#	177247
#	188217
#	199060
#	208875
#	218265
#	230475
#
# Disc length: 3196 seconds
#
# Revision: 1
# Processed by: cddbd v1.5.2PL0 Copyright (c) Steve Scherf et al.
# Submitted via: Feurio! 1.68 - http://www.feurio.com
#
DISCID=1a0c7a15
DTITLE=Various Artist - The Goldband Blues Collection, Part 1
DYEAR=1900
DGENRE=Blues
TTITLE0=Bobby Brown - Who Are They To Say
TTITLE1=Clarence Garlow - Sunday Morning
TTITLE2=Charles (Mad Dog) Sheffield - One Hour Thirty Minutes Too Long
TTITLE3=Clarence Garlow - Train Came Rolling Down The Track
TTITLE4=Clarence Garlow - Sound The Bell
TTITLE5=Juke Boy Bonner - Can't Hardly Keep From Crying
TTITLE6=Sticks Herman - My Love Is Real
TTITLE7=Shelton Dunaway and The Cupcakes - I'm Going
TTITLE8=Shelton Dunaway and The Cupcakes - Cindy Lou
TTITLE9=Elton Anderson - Come Back Home
TTITLE10=Sticks Herman - Teenage Baby
TTITLE11=Cookie and The Cupcakes - Need All Your Loving Baby
TTITLE12=Cookie and The Cupcakes - I Cried and I Cried
TTITLE13=Katie Webster With Cookie and The Cupcakes - You Gonna Need Me
TTITLE14=Sticks Herman and The Golden Gate Quartet - Give Me Your Love
TTITLE15=Big Chenier - Just Couldn't Take It
TTITLE16=Big Chenier - Let Me Hold Your Hand
TTITLE17=Katie Webster and Ashton Savoy - Juke Joint [instr]
TTITLE18=Katie Webster and Ashton Savoy - Dingle I Love You
TTITLE19=Elton Anderson - But I Love You
TTITLE20=Elton Anderson - Catch That Train
EXTD=track #21 stated on cd-cover is missing\r\n(juke boy bonner - my time to 
EXTD=go)
EXTT0=
EXTT1=
EXTT2=
EXTT3=
EXTT4=
EXTT5=
EXTT6=
EXTT7=
EXTT8=
EXTT9=
EXTT10=
EXTT11=
EXTT12=
EXTT13=
EXTT14=
EXTT15=
EXTT16=
EXTT17=
EXTT18=
EXTT19=
EXTT20=
PLAYORDER=
